# xmcd
#
# Track frame offsets:
#	150
#	25277
#	49627
#	68892
#	90757
#	112710
#	133215
#	149962
#	171010
#	193045
#	209382
#	233182
#	256760
#	279950
#	300665
#
# Disc length: 4283 seconds
#
# Revision: 1
# Processed by: cddbd v1.5PL3 Copyright (c) Steve Scherf et al.
# Submitted via: CDex 1.50Beta5
#
DISCID=cf10b90f
DTITLE=沢田知可子 - Single Collection
DYEAR=1994
DGENRE=New Age
TTITLE0=恋人と呼ばせて
TTITLE1=I…love…you…
TTITLE2=砂浜
TTITLE3=Marie
TTITLE4=片想い
TTITLE5=Still…
TTITLE6=HAPPY EVER AFTER
TTITLE7=COME INTO MY LIFE
TTITLE8=会いたい
TTITLE9=Live On The Turf
TTITLE10=Melody
TTITLE11=Boy
TTITLE12=ふたり
TTITLE13=忘れられない
TTITLE14=幸せになろう
EXTD=
EXTT0=
EXTT1=
EXTT2=
EXTT3=
EXTT4=
EXTT5=
EXTT6=
EXTT7=
EXTT8=
EXTT9=
EXTT10=
EXTT11=
EXTT12=
EXTT13=
EXTT14=
PLAYORDER=
